<?xml version="1.0" encoding="utf-8" ?>
<svg baseProfile="tiny" version="1.2" xmlns="http://www.w3.org/2000/svg" xmlns:ev="http://www.w3.org/2001/xml-events" xmlns:xlink="http://www.w3.org/1999/xlink"><defs /><polygon fill="#000000" points="75.0,203.0 65.0,213.0 65.0,214.0 66.0,215.0 67.0,215.0 69.0,217.0 70.0,217.0 72.0,219.0 73.0,219.0 74.0,220.0 75.0,220.0 76.0,221.0 77.0,221.0 79.0,223.0 80.0,223.0 81.0,224.0 83.0,224.0 84.0,225.0 85.0,225.0 86.0,226.0 87.0,226.0 88.0,227.0 90.0,227.0 91.0,228.0 92.0,228.0 93.0,229.0 95.0,229.0 96.0,230.0 99.0,230.0 100.0,231.0 103.0,231.0 104.0,232.0 107.0,232.0 108.0,233.0 113.0,233.0 114.0,234.0 145.0,234.0 146.0,233.0 152.0,233.0 153.0,232.0 157.0,232.0 158.0,231.0 161.0,231.0 162.0,230.0 165.0,230.0 166.0,229.0 168.0,229.0 169.0,228.0 171.0,228.0 172.0,227.0 174.0,227.0 175.0,226.0 176.0,226.0 177.0,225.0 178.0,225.0 179.0,224.0 180.0,224.0 181.0,223.0 182.0,223.0 183.0,222.0 184.0,222.0 185.0,221.0 186.0,221.0 187.0,220.0 188.0,220.0 190.0,218.0 191.0,218.0 193.0,216.0 194.0,216.0 197.0,213.0 187.0,203.0 186.0,203.0 185.0,204.0 184.0,204.0 182.0,206.0 181.0,206.0 179.0,208.0 178.0,208.0 177.0,209.0 176.0,209.0 175.0,210.0 174.0,210.0 173.0,211.0 172.0,211.0 171.0,212.0 170.0,212.0 169.0,213.0 167.0,213.0 166.0,214.0 164.0,214.0 163.0,215.0 161.0,215.0 160.0,216.0 158.0,216.0 157.0,217.0 154.0,217.0 153.0,218.0 149.0,218.0 148.0,219.0 141.0,219.0 140.0,220.0 119.0,220.0 118.0,219.0 113.0,219.0 112.0,218.0 108.0,218.0 107.0,217.0 104.0,217.0 103.0,216.0 101.0,216.0 100.0,215.0 98.0,215.0 97.0,214.0 95.0,214.0 94.0,213.0 93.0,213.0 92.0,212.0 91.0,212.0 90.0,211.0 89.0,211.0 88.0,210.0 87.0,210.0 86.0,209.0 85.0,209.0 84.0,208.0 83.0,208.0 82.0,207.0 81.0,207.0 79.0,205.0 78.0,205.0 76.0,203.0" /><polygon fill="#000000" points="131.0,145.0 105.0,171.0 105.0,172.0 82.0,195.0 82.0,196.0 83.0,196.0 85.0,198.0 86.0,198.0 87.0,199.0 88.0,199.0 89.0,200.0 90.0,200.0 91.0,201.0 92.0,201.0 93.0,202.0 94.0,202.0 95.0,203.0 96.0,203.0 97.0,204.0 99.0,204.0 100.0,205.0 102.0,205.0 103.0,206.0 105.0,206.0 106.0,207.0 108.0,207.0 109.0,208.0 113.0,208.0 114.0,209.0 121.0,209.0 122.0,210.0 142.0,210.0 143.0,209.0 149.0,209.0 150.0,208.0 154.0,208.0 155.0,207.0 157.0,207.0 158.0,206.0 160.0,206.0 161.0,205.0 163.0,205.0 164.0,204.0 165.0,204.0 166.0,203.0 168.0,203.0 169.0,202.0 170.0,202.0 171.0,201.0 172.0,201.0 174.0,199.0 175.0,199.0 176.0,198.0 177.0,198.0 179.0,196.0 180.0,196.0 180.0,194.0 152.0,166.0 152.0,165.0 132.0,145.0" /><polygon fill="#000000" points="125.0,92.0 124.0,93.0 121.0,93.0 120.0,94.0 118.0,94.0 117.0,95.0 115.0,95.0 114.0,96.0 113.0,96.0 112.0,97.0 111.0,97.0 109.0,99.0 108.0,99.0 100.0,107.0 100.0,108.0 98.0,110.0 98.0,111.0 97.0,112.0 97.0,113.0 96.0,114.0 96.0,116.0 95.0,117.0 95.0,119.0 94.0,120.0 94.0,123.0 93.0,124.0 93.0,135.0 94.0,136.0 94.0,139.0 95.0,140.0 95.0,142.0 96.0,143.0 96.0,144.0 97.0,145.0 97.0,146.0 99.0,148.0 99.0,149.0 103.0,153.0 103.0,154.0 105.0,156.0 106.0,156.0 107.0,157.0 131.0,133.0 132.0,133.0 156.0,157.0 162.0,151.0 162.0,150.0 164.0,148.0 164.0,147.0 165.0,146.0 165.0,145.0 166.0,144.0 166.0,143.0 167.0,142.0 167.0,140.0 168.0,139.0 168.0,136.0 169.0,135.0 169.0,124.0 168.0,123.0 168.0,120.0 167.0,119.0 167.0,117.0 166.0,116.0 166.0,114.0 165.0,113.0 165.0,112.0 164.0,111.0 164.0,110.0 162.0,108.0 162.0,107.0 154.0,99.0 153.0,99.0 151.0,97.0 150.0,97.0 149.0,96.0 148.0,96.0 147.0,95.0 145.0,95.0 144.0,94.0 142.0,94.0 141.0,93.0 138.0,93.0 137.0,92.0" /><polygon fill="#000000" points="122.0,64.0 121.0,65.0 116.0,65.0 115.0,66.0 112.0,66.0 111.0,67.0 109.0,67.0 108.0,68.0 106.0,68.0 105.0,69.0 103.0,69.0 102.0,70.0 101.0,70.0 100.0,71.0 99.0,71.0 98.0,72.0 97.0,72.0 95.0,74.0 94.0,74.0 92.0,76.0 91.0,76.0 88.0,79.0 87.0,79.0 79.0,87.0 79.0,88.0 76.0,91.0 76.0,92.0 74.0,94.0 74.0,95.0 72.0,97.0 72.0,98.0 71.0,99.0 71.0,100.0 70.0,101.0 70.0,102.0 69.0,103.0 69.0,105.0 68.0,106.0 68.0,108.0 67.0,109.0 67.0,111.0 66.0,112.0 66.0,115.0 65.0,116.0 65.0,121.0 64.0,122.0 64.0,136.0 65.0,137.0 65.0,142.0 66.0,143.0 66.0,145.0 67.0,146.0 67.0,148.0 68.0,149.0 68.0,150.0 69.0,151.0 69.0,153.0 70.0,154.0 70.0,155.0 72.0,157.0 72.0,158.0 73.0,159.0 73.0,160.0 75.0,162.0 75.0,163.0 79.0,167.0 79.0,168.0 87.0,176.0 88.0,176.0 94.0,170.0 94.0,169.0 83.0,158.0 83.0,157.0 81.0,155.0 81.0,154.0 79.0,152.0 79.0,151.0 78.0,150.0 78.0,149.0 77.0,148.0 77.0,147.0 76.0,146.0 76.0,145.0 75.0,144.0 75.0,142.0 74.0,141.0 74.0,138.0 73.0,137.0 73.0,121.0 74.0,120.0 74.0,116.0 75.0,115.0 75.0,113.0 76.0,112.0 76.0,110.0 77.0,109.0 77.0,108.0 78.0,107.0 78.0,106.0 79.0,105.0 79.0,104.0 80.0,103.0 80.0,102.0 81.0,101.0 81.0,100.0 83.0,98.0 83.0,97.0 86.0,94.0 86.0,93.0 93.0,86.0 94.0,86.0 97.0,83.0 98.0,83.0 100.0,81.0 101.0,81.0 102.0,80.0 103.0,80.0 104.0,79.0 105.0,79.0 106.0,78.0 107.0,78.0 108.0,77.0 109.0,77.0 110.0,76.0 112.0,76.0 113.0,75.0 115.0,75.0 116.0,74.0 120.0,74.0 121.0,73.0 138.0,73.0 139.0,74.0 143.0,74.0 144.0,75.0 146.0,75.0 147.0,76.0 149.0,76.0 150.0,77.0 152.0,77.0 153.0,78.0 154.0,78.0 155.0,79.0 156.0,79.0 157.0,80.0 158.0,80.0 160.0,82.0 161.0,82.0 164.0,85.0 165.0,85.0 175.0,95.0 175.0,96.0 177.0,98.0 177.0,99.0 179.0,101.0 179.0,102.0 180.0,103.0 180.0,104.0 181.0,105.0 181.0,106.0 182.0,107.0 182.0,108.0 183.0,109.0 183.0,111.0 184.0,112.0 184.0,114.0 185.0,115.0 185.0,118.0 186.0,119.0 186.0,125.0 187.0,126.0 187.0,132.0 186.0,133.0 186.0,139.0 185.0,140.0 185.0,143.0 184.0,144.0 184.0,146.0 183.0,147.0 183.0,148.0 182.0,149.0 182.0,150.0 181.0,151.0 181.0,152.0 180.0,153.0 180.0,154.0 179.0,155.0 179.0,156.0 178.0,157.0 178.0,158.0 176.0,160.0 176.0,161.0 173.0,164.0 173.0,165.0 169.0,169.0 169.0,170.0 175.0,176.0 181.0,170.0 181.0,169.0 183.0,167.0 183.0,166.0 185.0,164.0 185.0,163.0 186.0,162.0 186.0,161.0 188.0,159.0 188.0,158.0 189.0,157.0 189.0,156.0 190.0,155.0 190.0,153.0 191.0,152.0 191.0,151.0 192.0,150.0 192.0,148.0 193.0,147.0 193.0,144.0 194.0,143.0 194.0,140.0 195.0,139.0 195.0,119.0 194.0,118.0 194.0,114.0 193.0,113.0 193.0,111.0 192.0,110.0 192.0,108.0 191.0,107.0 191.0,105.0 190.0,104.0 190.0,103.0 189.0,102.0 189.0,101.0 188.0,100.0 188.0,99.0 187.0,98.0 187.0,97.0 186.0,96.0 186.0,95.0 184.0,93.0 184.0,92.0 182.0,90.0 182.0,89.0 171.0,78.0 170.0,78.0 167.0,75.0 166.0,75.0 164.0,73.0 163.0,73.0 162.0,72.0 161.0,72.0 160.0,71.0 159.0,71.0 158.0,70.0 157.0,70.0 156.0,69.0 154.0,69.0 153.0,68.0 152.0,68.0 151.0,67.0 148.0,67.0 147.0,66.0 144.0,66.0 143.0,65.0 138.0,65.0 137.0,64.0" /><polygon fill="#000000" points="123.0,45.0 122.0,46.0 115.0,46.0 114.0,47.0 110.0,47.0 109.0,48.0 106.0,48.0 105.0,49.0 103.0,49.0 102.0,50.0 100.0,50.0 99.0,51.0 97.0,51.0 96.0,52.0 95.0,52.0 94.0,53.0 93.0,53.0 92.0,54.0 91.0,54.0 90.0,55.0 89.0,55.0 88.0,56.0 87.0,56.0 85.0,58.0 84.0,58.0 83.0,59.0 82.0,59.0 79.0,62.0 78.0,62.0 72.0,68.0 71.0,68.0 69.0,70.0 69.0,71.0 63.0,77.0 63.0,78.0 61.0,80.0 61.0,81.0 59.0,83.0 59.0,84.0 57.0,86.0 57.0,87.0 56.0,88.0 56.0,89.0 55.0,90.0 55.0,91.0 54.0,92.0 54.0,93.0 53.0,94.0 53.0,96.0 52.0,97.0 52.0,98.0 51.0,99.0 51.0,101.0 50.0,102.0 50.0,104.0 49.0,105.0 49.0,108.0 48.0,109.0 48.0,113.0 47.0,114.0 47.0,123.0 46.0,124.0 46.0,130.0 47.0,131.0 47.0,140.0 48.0,141.0 48.0,145.0 49.0,146.0 49.0,149.0 50.0,150.0 50.0,152.0 51.0,153.0 51.0,155.0 52.0,156.0 52.0,158.0 53.0,159.0 53.0,160.0 54.0,161.0 54.0,162.0 55.0,163.0 55.0,164.0 56.0,165.0 56.0,166.0 58.0,168.0 58.0,169.0 59.0,170.0 59.0,171.0 61.0,173.0 61.0,174.0 64.0,177.0 64.0,178.0 75.0,189.0 81.0,183.0 82.0,183.0 82.0,181.0 74.0,173.0 74.0,172.0 70.0,168.0 70.0,167.0 68.0,165.0 68.0,164.0 66.0,162.0 66.0,161.0 65.0,160.0 65.0,159.0 64.0,158.0 64.0,157.0 63.0,156.0 63.0,155.0 62.0,154.0 62.0,153.0 61.0,152.0 61.0,150.0 60.0,149.0 60.0,147.0 59.0,146.0 59.0,144.0 58.0,143.0 58.0,139.0 57.0,138.0 57.0,130.0 56.0,129.0 56.0,125.0 57.0,124.0 57.0,116.0 58.0,115.0 58.0,111.0 59.0,110.0 59.0,108.0 60.0,107.0 60.0,104.0 61.0,103.0 61.0,102.0 62.0,101.0 62.0,99.0 63.0,98.0 63.0,97.0 64.0,96.0 64.0,95.0 65.0,94.0 65.0,93.0 67.0,91.0 67.0,90.0 68.0,89.0 68.0,88.0 70.0,86.0 70.0,85.0 75.0,80.0 75.0,79.0 81.0,73.0 82.0,73.0 86.0,69.0 87.0,69.0 90.0,66.0 91.0,66.0 92.0,65.0 93.0,65.0 95.0,63.0 96.0,63.0 97.0,62.0 98.0,62.0 99.0,61.0 101.0,61.0 102.0,60.0 103.0,60.0 104.0,59.0 106.0,59.0 107.0,58.0 109.0,58.0 110.0,57.0 113.0,57.0 114.0,56.0 118.0,56.0 119.0,55.0 140.0,55.0 141.0,56.0 145.0,56.0 146.0,57.0 149.0,57.0 150.0,58.0 152.0,58.0 153.0,59.0 155.0,59.0 156.0,60.0 157.0,60.0 158.0,61.0 160.0,61.0 161.0,62.0 162.0,62.0 163.0,63.0 164.0,63.0 166.0,65.0 167.0,65.0 168.0,66.0 169.0,66.0 172.0,69.0 173.0,69.0 177.0,73.0 178.0,73.0 184.0,79.0 184.0,80.0 188.0,84.0 188.0,85.0 191.0,88.0 191.0,89.0 192.0,90.0 192.0,91.0 194.0,93.0 194.0,94.0 195.0,95.0 195.0,96.0 196.0,97.0 196.0,98.0 197.0,99.0 197.0,101.0 198.0,102.0 198.0,104.0 199.0,105.0 199.0,107.0 200.0,108.0 200.0,110.0 201.0,111.0 201.0,115.0 202.0,116.0 202.0,125.0 203.0,126.0 203.0,129.0 202.0,130.0 202.0,139.0 201.0,140.0 201.0,144.0 200.0,145.0 200.0,147.0 199.0,148.0 199.0,151.0 198.0,152.0 198.0,154.0 197.0,155.0 197.0,156.0 196.0,157.0 196.0,158.0 195.0,159.0 195.0,161.0 194.0,162.0 194.0,163.0 192.0,165.0 192.0,166.0 191.0,167.0 191.0,168.0 189.0,170.0 189.0,171.0 187.0,173.0 187.0,174.0 183.0,178.0 183.0,179.0 181.0,181.0 181.0,183.0 187.0,189.0 188.0,189.0 191.0,186.0 191.0,185.0 194.0,182.0 194.0,181.0 196.0,179.0 196.0,178.0 198.0,176.0 198.0,175.0 200.0,173.0 200.0,172.0 201.0,171.0 201.0,170.0 202.0,169.0 202.0,168.0 203.0,167.0 203.0,165.0 204.0,164.0 204.0,163.0 205.0,162.0 205.0,160.0 206.0,159.0 206.0,157.0 207.0,156.0 207.0,154.0 208.0,153.0 208.0,150.0 209.0,149.0 209.0,146.0 210.0,145.0 210.0,139.0 211.0,138.0 211.0,117.0 210.0,116.0 210.0,111.0 209.0,110.0 209.0,107.0 208.0,106.0 208.0,103.0 207.0,102.0 207.0,100.0 206.0,99.0 206.0,98.0 205.0,97.0 205.0,95.0 204.0,94.0 204.0,93.0 203.0,92.0 203.0,91.0 202.0,90.0 202.0,89.0 201.0,88.0 201.0,87.0 200.0,86.0 200.0,85.0 198.0,83.0 198.0,82.0 196.0,80.0 196.0,79.0 193.0,76.0 193.0,75.0 182.0,64.0 181.0,64.0 177.0,60.0 176.0,60.0 174.0,58.0 173.0,58.0 172.0,57.0 171.0,57.0 169.0,55.0 168.0,55.0 167.0,54.0 166.0,54.0 165.0,53.0 164.0,53.0 163.0,52.0 161.0,52.0 160.0,51.0 159.0,51.0 158.0,50.0 156.0,50.0 155.0,49.0 153.0,49.0 152.0,48.0 149.0,48.0 148.0,47.0 144.0,47.0 143.0,46.0 136.0,46.0 135.0,45.0" /><polygon fill="#000000" points="114.0,21.0 113.0,22.0 108.0,22.0 107.0,23.0 104.0,23.0 103.0,24.0 100.0,24.0 99.0,25.0 96.0,25.0 95.0,26.0 93.0,26.0 92.0,27.0 91.0,27.0 90.0,28.0 88.0,28.0 87.0,29.0 86.0,29.0 85.0,30.0 84.0,30.0 83.0,31.0 81.0,31.0 79.0,33.0 78.0,33.0 77.0,34.0 76.0,34.0 75.0,35.0 74.0,35.0 73.0,36.0 72.0,36.0 70.0,38.0 69.0,38.0 67.0,40.0 66.0,40.0 63.0,43.0 62.0,43.0 55.0,50.0 54.0,50.0 50.0,54.0 50.0,55.0 44.0,61.0 44.0,62.0 42.0,64.0 42.0,65.0 39.0,68.0 39.0,69.0 38.0,70.0 38.0,71.0 36.0,73.0 36.0,74.0 35.0,75.0 35.0,76.0 34.0,77.0 34.0,78.0 33.0,79.0 33.0,80.0 32.0,81.0 32.0,82.0 31.0,83.0 31.0,84.0 30.0,85.0 30.0,86.0 29.0,87.0 29.0,89.0 28.0,90.0 28.0,92.0 27.0,93.0 27.0,95.0 26.0,96.0 26.0,98.0 25.0,99.0 25.0,102.0 24.0,103.0 24.0,107.0 23.0,108.0 23.0,113.0 22.0,114.0 22.0,115.0 15.0,122.0 14.0,122.0 12.0,124.0 11.0,124.0 9.0,126.0 8.0,126.0 7.0,127.0 5.0,127.0 4.0,128.0 3.0,128.0 3.0,129.0 4.0,129.0 5.0,130.0 6.0,130.0 7.0,131.0 8.0,131.0 10.0,133.0 11.0,133.0 12.0,134.0 13.0,134.0 22.0,143.0 22.0,144.0 23.0,145.0 23.0,147.0 24.0,148.0 24.0,152.0 25.0,153.0 25.0,156.0 26.0,157.0 26.0,159.0 27.0,160.0 27.0,162.0 28.0,163.0 28.0,165.0 29.0,166.0 29.0,168.0 30.0,169.0 30.0,170.0 31.0,171.0 31.0,172.0 32.0,173.0 32.0,174.0 33.0,175.0 33.0,176.0 34.0,177.0 34.0,178.0 35.0,179.0 35.0,180.0 36.0,181.0 36.0,182.0 38.0,184.0 38.0,185.0 39.0,186.0 39.0,187.0 42.0,190.0 42.0,191.0 45.0,194.0 45.0,195.0 52.0,202.0 52.0,203.0 54.0,205.0 55.0,205.0 57.0,207.0 67.0,197.0 67.0,196.0 57.0,186.0 57.0,185.0 54.0,182.0 54.0,181.0 51.0,178.0 51.0,177.0 50.0,176.0 50.0,175.0 48.0,173.0 48.0,172.0 47.0,171.0 47.0,170.0 46.0,169.0 46.0,168.0 45.0,167.0 45.0,166.0 44.0,165.0 44.0,164.0 43.0,163.0 43.0,161.0 42.0,160.0 42.0,159.0 41.0,158.0 41.0,156.0 40.0,155.0 40.0,152.0 39.0,151.0 39.0,149.0 38.0,148.0 38.0,144.0 37.0,143.0 37.0,136.0 36.0,135.0 36.0,120.0 37.0,119.0 37.0,112.0 38.0,111.0 38.0,107.0 39.0,106.0 39.0,104.0 40.0,103.0 40.0,100.0 41.0,99.0 41.0,97.0 42.0,96.0 42.0,95.0 43.0,94.0 43.0,92.0 44.0,91.0 44.0,90.0 45.0,89.0 45.0,88.0 46.0,87.0 46.0,86.0 47.0,85.0 47.0,84.0 48.0,83.0 48.0,82.0 49.0,81.0 49.0,80.0 51.0,78.0 51.0,77.0 53.0,75.0 53.0,74.0 57.0,70.0 57.0,69.0 70.0,56.0 71.0,56.0 75.0,52.0 76.0,52.0 78.0,50.0 79.0,50.0 81.0,48.0 82.0,48.0 83.0,47.0 84.0,47.0 85.0,46.0 86.0,46.0 87.0,45.0 88.0,45.0 89.0,44.0 90.0,44.0 91.0,43.0 92.0,43.0 93.0,42.0 94.0,42.0 95.0,41.0 97.0,41.0 98.0,40.0 100.0,40.0 101.0,39.0 103.0,39.0 104.0,38.0 107.0,38.0 108.0,37.0 112.0,37.0 113.0,36.0 118.0,36.0 119.0,35.0 138.0,35.0 139.0,36.0 145.0,36.0 146.0,37.0 150.0,37.0 151.0,38.0 153.0,38.0 154.0,39.0 157.0,39.0 158.0,40.0 160.0,40.0 161.0,41.0 162.0,41.0 163.0,42.0 165.0,42.0 166.0,43.0 167.0,43.0 168.0,44.0 169.0,44.0 170.0,45.0 171.0,45.0 172.0,46.0 173.0,46.0 175.0,48.0 176.0,48.0 177.0,49.0 178.0,49.0 180.0,51.0 181.0,51.0 183.0,53.0 184.0,53.0 189.0,58.0 190.0,58.0 199.0,67.0 199.0,68.0 203.0,72.0 203.0,73.0 206.0,76.0 206.0,77.0 207.0,78.0 207.0,79.0 209.0,81.0 209.0,82.0 210.0,83.0 210.0,84.0 211.0,85.0 211.0,86.0 212.0,87.0 212.0,88.0 213.0,89.0 213.0,90.0 214.0,91.0 214.0,92.0 215.0,93.0 215.0,95.0 216.0,96.0 216.0,97.0 217.0,98.0 217.0,100.0 218.0,101.0 218.0,104.0 219.0,105.0 219.0,108.0 220.0,109.0 220.0,114.0 221.0,115.0 221.0,141.0 220.0,142.0 220.0,146.0 219.0,147.0 219.0,151.0 218.0,152.0 218.0,155.0 217.0,156.0 217.0,158.0 216.0,159.0 216.0,161.0 215.0,162.0 215.0,164.0 214.0,165.0 214.0,166.0 213.0,167.0 213.0,169.0 212.0,170.0 212.0,171.0 211.0,172.0 211.0,173.0 210.0,174.0 210.0,175.0 209.0,176.0 209.0,177.0 207.0,179.0 207.0,180.0 206.0,181.0 206.0,182.0 204.0,184.0 204.0,185.0 201.0,188.0 201.0,189.0 195.0,195.0 195.0,196.0 205.0,206.0 207.0,206.0 207.0,205.0 212.0,200.0 212.0,199.0 214.0,197.0 214.0,196.0 216.0,194.0 216.0,193.0 218.0,191.0 218.0,190.0 219.0,189.0 219.0,188.0 221.0,186.0 221.0,185.0 222.0,184.0 222.0,183.0 223.0,182.0 223.0,181.0 224.0,180.0 224.0,179.0 225.0,178.0 225.0,176.0 226.0,175.0 226.0,174.0 227.0,173.0 227.0,171.0 228.0,170.0 228.0,169.0 229.0,168.0 229.0,166.0 230.0,165.0 230.0,163.0 231.0,162.0 231.0,159.0 232.0,158.0 232.0,155.0 233.0,154.0 233.0,151.0 234.0,150.0 234.0,147.0 235.0,146.0 235.0,145.0 236.0,144.0 236.0,143.0 245.0,134.0 246.0,134.0 248.0,132.0 249.0,132.0 250.0,131.0 251.0,131.0 252.0,130.0 253.0,130.0 254.0,129.0 255.0,129.0 255.0,128.0 254.0,128.0 253.0,127.0 252.0,127.0 251.0,126.0 250.0,126.0 249.0,125.0 248.0,125.0 247.0,124.0 246.0,124.0 244.0,122.0 243.0,122.0 236.0,115.0 236.0,114.0 235.0,113.0 235.0,110.0 234.0,109.0 234.0,105.0 233.0,104.0 233.0,101.0 232.0,100.0 232.0,97.0 231.0,96.0 231.0,94.0 230.0,93.0 230.0,91.0 229.0,90.0 229.0,88.0 228.0,87.0 228.0,86.0 227.0,85.0 227.0,84.0 226.0,83.0 226.0,81.0 225.0,80.0 225.0,79.0 223.0,77.0 223.0,76.0 222.0,75.0 222.0,74.0 221.0,73.0 221.0,72.0 219.0,70.0 219.0,69.0 217.0,67.0 217.0,66.0 215.0,64.0 215.0,63.0 211.0,59.0 211.0,58.0 198.0,45.0 197.0,45.0 193.0,41.0 192.0,41.0 190.0,39.0 189.0,39.0 187.0,37.0 186.0,37.0 185.0,36.0 184.0,36.0 182.0,34.0 181.0,34.0 180.0,33.0 179.0,33.0 178.0,32.0 177.0,32.0 176.0,31.0 175.0,31.0 174.0,30.0 173.0,30.0 172.0,29.0 170.0,29.0 169.0,28.0 168.0,28.0 167.0,27.0 165.0,27.0 164.0,26.0 162.0,26.0 161.0,25.0 159.0,25.0 158.0,24.0 155.0,24.0 154.0,23.0 150.0,23.0 149.0,22.0 144.0,22.0 143.0,21.0" /></svg>
