<?xml version="1.0" encoding="utf-8"?>
<!-- Generator: Adobe Illustrator 22.0.0, SVG Export Plug-In . SVG Version: 6.00 Build 0)  -->
<svg version="1.1" id="Layer_1" xmlns="http://www.w3.org/2000/svg" xmlns:xlink="http://www.w3.org/1999/xlink" x="0px" y="0px"
	 viewBox="0 0 64 64" style="enable-background:new 0 0 64 64;" xml:space="preserve">
<g>
	<path d="M13.1,26.8c0.3-1.9,3.2-4.6,6.8-7.7V13h-4.2c0.1-1-0.4-1.8-0.7-2.5h-2.5L7,16.1v3.8L9,20v2.1c-1.1,1.5-2.4,2.7-3.5,3.9H1.9
		v7.5c8,2.9,8.7,8.6,4.4,9.8l4.6,5.7h3.4l1.8-1.3l6.2,5.5v-9.8c0,0-9.2-7.5-9.3-8.9C12.9,33.1,12.8,28.8,13.1,26.8z"/>
	<path d="M50.9,26.8c-0.3-1.9-3.2-4.6-6.8-7.7V13h4.2c-0.1-1,0.4-1.8,0.7-2.5h2.5l5.6,5.6v3.8L55,20v2.1c1.1,1.5,2.4,2.7,3.5,3.9
		h3.7v7.5c-8,2.9-8.7,8.6-4.4,9.8L53.1,49h-3.4l-1.8-1.3l-6.2,5.5v-9.8c0,0,9.2-7.5,9.3-8.9C51.1,33.1,51.2,28.8,50.9,26.8z"/>
	<g>
		<path d="M40.8,36.9l-8-7.9c-0.2-0.2-0.5-0.4-0.9-0.4c-0.3,0-0.6,0.1-0.9,0.4l-8,7.9c0,0-1.1,4.2,0.4,5.6c1.1,1.1,1.6,1.6,1.6,1.6
			l6.9-6.9l6.9,6.9c0,0,0.5-0.5,1.6-1.6C41.9,41.1,40.8,36.9,40.8,36.9z"/>
		<path d="M40.8,23.4l-8-7.9c-0.2-0.2-0.5-0.4-0.9-0.4c-0.3,0-0.6,0.1-0.9,0.4l-8,7.9c0,0-1.1,4.2,0.4,5.6c1.1,1.1,1.6,1.6,1.6,1.6
			l6.9-6.9l6.9,6.9c0,0,0.5-0.5,1.6-1.6C41.9,27.6,40.8,23.4,40.8,23.4z"/>
	</g>
</g>
</svg>
